<svg width="20" height="18" viewBox="0 0 20 18" fill="none" xmlns="http://www.w3.org/2000/svg">
<path d="M6.66667 13.1666L10 16.4999M10 16.4999L13.3333 13.1666M10 16.4999V8.99994M17.4 14.0749C18.1245 13.5655 18.6678 12.8384 18.9511 11.9992C19.2343 11.1601 19.2428 10.2525 18.9753 9.40813C18.7078 8.56381 18.1782 7.82669 17.4634 7.30375C16.7486 6.78081 15.8857 6.49925 15 6.49994H13.95C13.6994 5.52317 13.2304 4.61598 12.5784 3.84668C11.9265 3.07737 11.1085 2.46599 10.186 2.05857C9.26356 1.65115 8.26071 1.4583 7.25294 1.49454C6.24518 1.53078 5.25877 1.79517 4.36797 2.2678C3.47717 2.74043 2.70519 3.40898 2.11016 4.22314C1.51513 5.03729 1.11255 5.97582 0.932723 6.96807C0.752897 7.96032 0.800514 8.98044 1.07199 9.95163C1.34346 10.9228 1.83172 11.8198 2.50001 12.5749" stroke="#344054" stroke-width="1.67" stroke-linecap="round" stroke-linejoin="round"/>
</svg>
