<svg width="46" height="32" viewBox="0 0 46 32" fill="none" xmlns="http://www.w3.org/2000/svg">
<path d="M0 6C0 2.68629 2.68629 0 6 0H40C43.3137 0 46 2.68629 46 6V26C46 29.3137 43.3137 32 40 32H6C2.68629 32 0 29.3137 0 26V6Z" fill="white"/>
<path fill-rule="evenodd" clip-rule="evenodd" d="M22.9053 22.4396C21.3266 23.7704 19.2787 24.5737 17.0409 24.5737C12.0478 24.5737 8 20.5741 8 15.6404C8 10.7066 12.0478 6.70703 17.0409 6.70703C19.2787 6.70703 21.3266 7.51036 22.9053 8.84109C24.484 7.51036 26.5319 6.70703 28.7697 6.70703C33.7628 6.70703 37.8106 10.7066 37.8106 15.6404C37.8106 20.5741 33.7628 24.5737 28.7697 24.5737C26.5319 24.5737 24.484 23.7704 22.9053 22.4396Z" fill="#ED0006"/>
<path fill-rule="evenodd" clip-rule="evenodd" d="M22.9053 22.4396C24.8492 20.8011 26.0818 18.363 26.0818 15.6404C26.0818 12.9178 24.8492 10.4796 22.9053 8.84108C24.484 7.51036 26.5319 6.70703 28.7697 6.70703C33.7628 6.70703 37.8106 10.7066 37.8106 15.6404C37.8106 20.5741 33.7628 24.5737 28.7697 24.5737C26.5319 24.5737 24.484 23.7704 22.9053 22.4396Z" fill="#F9A000"/>
<path fill-rule="evenodd" clip-rule="evenodd" d="M22.905 22.4383C24.8489 20.7998 26.0815 18.3617 26.0815 15.6391C26.0815 12.9165 24.8489 10.4784 22.905 8.83984C20.9611 10.4784 19.7285 12.9165 19.7285 15.6391C19.7285 18.3617 20.9611 20.7998 22.905 22.4383Z" fill="#FF5E00"/>
<path d="M6 1H40V-1H6V1ZM45 6V26H47V6H45ZM40 31H6V33H40V31ZM1 26V6H-1V26H1ZM6 31C3.23858 31 1 28.7614 1 26H-1C-1 29.866 2.13401 33 6 33V31ZM45 26C45 28.7614 42.7614 31 40 31V33C43.866 33 47 29.866 47 26H45ZM40 1C42.7614 1 45 3.23858 45 6H47C47 2.13401 43.866 -1 40 -1V1ZM6 -1C2.13401 -1 -1 2.13401 -1 6H1C1 3.23858 3.23858 1 6 1V-1Z" fill="#F2F4F7"/>
</svg>
