<svg width="23" height="14" viewBox="0 0 23 14" fill="none" xmlns="http://www.w3.org/2000/svg">
<path fill-rule="evenodd" clip-rule="evenodd" d="M11.179 11.8297C9.99493 12.8278 8.45902 13.4303 6.78069 13.4303C3.03582 13.4303 0 10.4306 0 6.73027C0 3.02997 3.03582 0.0302734 6.78069 0.0302734C8.45902 0.0302734 9.99493 0.632772 11.179 1.63081C12.363 0.632772 13.8989 0.0302734 15.5773 0.0302734C19.3221 0.0302734 22.358 3.02997 22.358 6.73027C22.358 10.4306 19.3221 13.4303 15.5773 13.4303C13.8989 13.4303 12.363 12.8278 11.179 11.8297Z" fill="#ED0006"/>
<path fill-rule="evenodd" clip-rule="evenodd" d="M11.1797 11.8297C12.6376 10.6008 13.5621 8.77223 13.5621 6.73027C13.5621 4.68832 12.6376 2.85972 11.1797 1.63081C12.3637 0.63277 13.8996 0.0302734 15.578 0.0302734C19.3228 0.0302734 22.3587 3.02997 22.3587 6.73027C22.3587 10.4306 19.3228 13.4303 15.578 13.4303C13.8996 13.4303 12.3637 12.8278 11.1797 11.8297Z" fill="#F9A000"/>
<path fill-rule="evenodd" clip-rule="evenodd" d="M11.1793 11.8297C12.6372 10.6008 13.5616 8.77224 13.5616 6.7303C13.5616 4.68835 12.6372 2.85976 11.1793 1.63086C9.72133 2.85976 8.79688 4.68835 8.79688 6.7303C8.79688 8.77224 9.72133 10.6008 11.1793 11.8297Z" fill="#FF5E00"/>
</svg>
