<svg width="46" height="32" viewBox="0 0 46 32" fill="none" xmlns="http://www.w3.org/2000/svg">
<path d="M0 6C0 2.68629 2.68629 0 6 0H40C43.3137 0 46 2.68629 46 6V26C46 29.3137 43.3137 32 40 32H6C2.68629 32 0 29.3137 0 26V6Z" fill="white"/>
<path fill-rule="evenodd" clip-rule="evenodd" d="M14.3341 21.1451H11.5877L9.52833 13.0573C9.43058 12.6852 9.22304 12.3563 8.91774 12.2013C8.15584 11.8118 7.31628 11.5017 6.40039 11.3454V11.034H10.8245C11.4351 11.034 11.893 11.5017 11.9694 12.045L13.0379 17.879L15.7829 11.034H18.4529L14.3341 21.1451ZM19.9794 21.1451H17.3857L19.5214 11.034H22.1151L19.9794 21.1451ZM25.4707 13.8351C25.547 13.2905 26.0049 12.9791 26.5392 12.9791C27.3788 12.9009 28.2933 13.0573 29.0565 13.4455L29.5145 11.2685C28.7512 10.9571 27.9117 10.8008 27.1498 10.8008C24.6324 10.8008 22.8007 12.2013 22.8007 14.1451C22.8007 15.6238 24.0982 16.4003 25.0141 16.868C26.0049 17.3344 26.3865 17.6458 26.3102 18.1122C26.3102 18.8118 25.547 19.1232 24.7851 19.1232C23.8692 19.1232 22.9533 18.89 22.1151 18.5004L21.6571 20.6787C22.573 21.0669 23.5639 21.2233 24.4798 21.2233C27.3024 21.3001 29.0565 19.9009 29.0565 17.8008C29.0565 15.1561 25.4707 15.0011 25.4707 13.8351ZM38.1337 21.1451L36.0743 11.034H33.8623C33.4043 11.034 32.9464 11.3454 32.7937 11.8118L28.9802 21.1451H31.6502L32.1831 19.6677H35.4637L35.769 21.1451H38.1337ZM34.2439 13.7569L35.0058 17.5676H32.8701L34.2439 13.7569Z" fill="#172B85"/>
<path d="M6 1H40V-1H6V1ZM45 6V26H47V6H45ZM40 31H6V33H40V31ZM1 26V6H-1V26H1ZM6 31C3.23858 31 1 28.7614 1 26H-1C-1 29.866 2.13401 33 6 33V31ZM45 26C45 28.7614 42.7614 31 40 31V33C43.866 33 47 29.866 47 26H45ZM40 1C42.7614 1 45 3.23858 45 6H47C47 2.13401 43.866 -1 40 -1V1ZM6 -1C2.13401 -1 -1 2.13401 -1 6H1C1 3.23858 3.23858 1 6 1V-1Z" fill="#F2F4F7"/>
</svg>
